# xmcd CD database file
#
# Track frame offsets:
#	182
#	22100
#	47930
#	71330
#	94827
#	115502
#	140815
#	169185
#	192685
#	220092
#	241310
#
# Disc length: 3631 seconds
#
# Revision: 0
# Processed by: cddbd v1.5PL3 Copyright (c) Steve Scherf et al.
# Submitted via: CDex 1.51
#
DISCID=a30e2d0b
DTITLE=Various Artist - sounds like INERTIA VOL.#2
DYEAR=2000
DGENRE=Jazz
TTITLE0=Basildon Bond - On The One
TTITLE1=Hefner - Pumpkin Rum 
TTITLE2=Victor Malloy - Pecan Butter
TTITLE3=Omar Faruk Tekbilek - Shashkin (Hefner remix)
TTITLE4=Hefner - Residue (featuring Josée)
TTITLE5=Victor Malloy - Lone Wolf
TTITLE6=Fink - Ever Since I Was A Kid It Seemed I Collected Something (Hefner Remix)
TTITLE7=Hefner - An Evening With Hefner Pt III
TTITLE8=Victor Malloy - Diamond... Victor Diamond
TTITLE9=Basildon Bond - Swamp Song
TTITLE10=Akotcha - Sound Burger
EXTD=YEAR: 2000
EXTT0=
EXTT1=
EXTT2=
EXTT3=
EXTT4=
EXTT5=
EXTT6=
EXTT7=
EXTT8=
EXTT9=
EXTT10=
PLAYORDER=
